PathFileType	4	(X/Y/Z)	Walk6.trc
DataRate	CameraRate	NumFrames	NumMarkers	Units	OrigDataRate	OrigDataStartFrame	OrigNumFrames
200.000000	200.000000	7	59	mm	200.000000	459	490
Frame#	Times		LFHD		RFHD		CLAV		RBack		RACR1		RUA1		RFA1		RWRR		RWRU		RCAR		LACR1		LUA1		LFA1		LWRU		RTH1		RTH3		LTH3		LTH2		LTH4		LLFC		LWRR		LTH1		T10		RElbow		LASI		C7		RTH2		LTB2		LToe		LBHD		LTB4		RTH4		STRN		LMMAL		RTB1		LMT1		RTB2		RBHD		LTB1		LCAL		LCAR		LElbow		LTB3		RPSI		RElbowM		LElbowM		RLFC		LMT5		LLMAL		LPSI		RTB4		RMT1		RASI		RTB3		RCAL		RMT5		RLMAL		RToe		RMMAL
			X1	Y1	Z1	X2	Y2	Z2	X3	Y3	Z3	X4	Y4	Z4	X5	Y5	Z5	X6	Y6	Z6	X7	Y7	Z7	X8	Y8	Z8	X9	Y9	Z9	X10	Y10	Z10	X11	Y11	Z11	X12	Y12	Z12	X13	Y13	Z13	X14	Y14	Z14	X15	Y15	Z15	X16	Y16	Z16	X17	Y17	Z17	X18	Y18	Z18	X19	Y19	Z19	X20	Y20	Z20	X21	Y21	Z21	X22	Y22	Z22	X23	Y23	Z23	X24	Y24	Z24	X25	Y25	Z25	X26	Y26	Z26	X27	Y27	Z27	X28	Y28	Z28	X29	Y29	Z29	X30	Y30	Z30	X31	Y31	Z31	X32	Y32	Z32	X33	Y33	Z33	X34	Y34	Z34	X35	Y35	Z35	X36	Y36	Z36	X37	Y37	Z37	X38	Y38	Z38	X39	Y39	Z39	X40	Y40	Z40	X41	Y41	Z41	X42	Y42	Z42	X43	Y43	Z43	X44	Y44	Z44	X45	Y45	Z45	X46	Y46	Z46	X47	Y47	Z47	X48	Y48	Z48	X49	Y49	Z49	X50	Y50	Z50	X51	Y51	Z51	X52	Y52	Z52	X53	Y53	Z53	X54	Y54	Z54	X55	Y55	Z55	X56	Y56	Z56	X57	Y57	Z57	X58	Y58	Z58	X59	Y59	Z59

459	2.295	763.25	1446.6	-97.785	751.85	1436.8	-2.0467	741.89	1193.4	-56.767	548.66	1159.5	52.067	662.03	1228.9	117.45	668.95	1094.9	207.98	741.88	852.72	251.51	765.92	754.54	219.93	728.51	752.31	281.94	780.06	700.81	274.32	679.5	1210.3	-250.4	712.9	1044	-309.43	755.89	839.5	-348.98	762.26	727.92	-368.75	692.48	648.96	171.24	753.01	489.71	135.15	668.45	487.66	-204.11	719.61	582.01	-209.64	665.88	570.68	-232.5	691.73	395.82	-165.78	804.67	739.01	-323.56	664.22	654.96	-253.67	515.68	1076.9	-53.078	675.09	966.43	245.03	720.06	824.23	-208.09	601.42	1275.3	-69.785	773.59	593.09	138.91	662.69	211.33	-152.09	781.04	29.581	-79.871	642.04	1360.6	-131.05	679.98	210.65	-92.253	720.37	567.97	155.61	794.03	1088.2	-44.085	627.31	74.265	-41.586	752.64	296.81	69.664	728.14	34.573	-56.707	664.43	245.35	99.653	627.07	1355.7	1.7734	702.24	295.45	-98.45	561.53	45.355	-78.083	810.29	689.81	-369.22	684.37	925.39	-327.62	666.71	128.85	-87.555	475.87	851.03	14.952	621.66	931	178.19	649.61	902.58	-264.38	742.38	407.97	116.4	686.54	20.836	-142.75	606.26	59.644	-120.43	468.26	855.58	-90.341	700.63	228.36	54.004	675.5	51.276	11.422	734.85	836.96	117.88	656.44	158.2	39.353	524.46	122.73	6.6275	635.47	52.235	90.051	578.2	124.28	62.835	715.15	42.949	55.825	607.03	126.81	-15.274
460	2.3	768.78	1446.7	-97.564	757.33	1436.9	-1.8435	747.38	1193.5	-56.488	554	1159.6	51.865	667.29	1229	117.5	673.98	1095.1	208.12	746.72	852.97	251.96	770.77	754.78	220.54	733.27	752.59	282.48	784.88	701.13	275.02	685.43	1210.5	-250.26	718.56	1044.3	-309.52	763.21	840.17	-348.73	770.72	728.69	-368.23	698.34	649.3	171.31	760.43	490.74	134.51	671.68	487.47	-203.98	723.52	581.5	-209.4	669.77	570.47	-232.23	694.14	395.38	-165.63	812.84	740.29	-322.92	668.79	654.83	-253.47	521.15	1077.1	-53.375	679.96	966.69	245.33	725.28	824.07	-208.15	606.96	1275.4	-69.807	780.07	594.33	138.83	663.91	211.04	-151.95	781.19	29.473	-79.751	647.61	1360.7	-130.96	681.07	210.26	-92.093	727.02	568.6	155.37	799.42	1088.3	-43.037	627.47	74.199	-41.455	763.34	297.58	69.068	728.2	34.593	-56.699	676.94	243.36	99.467	632.54	1355.8	1.8647	703.88	294.92	-98.228	561.61	45.55	-77.999	819.21	691.25	-368.56	690.8	925.52	-327.71	667.28	128.56	-87.404	481.03	851.4	14.713	626.6	931.24	178.46	656.13	902.53	-264.47	750.41	408.56	115.84	686.54	20.863	-142.71	606.44	59.735	-120.35	473.57	855.86	-90.479	713.52	227.6	53.618	694.27	50.233	11.469	739.75	837.37	118.41	671.59	156.07	39.157	540.7	116.16	6.9295	654.39	49.63	90.152	594.52	119.6	63.036	734.34	43.322	55.698	623.09	123.1	-15.129
461	2.305	774.32	1446.7	-97.321	762.8	1437	-1.6192	752.88	1193.5	-56.206	559.33	1159.7	51.679	672.55	1229	117.57	679.01	1095.2	208.28	751.57	853.17	252.46	775.67	754.99	221.2	738.04	752.82	283.05	789.72	701.41	275.76	691.37	1210.6	-250.11	724.19	1044.5	-309.63	770.49	840.8	-348.48	779.13	729.42	-367.7	704.18	649.57	171.41	767.66	491.67	133.84	674.93	487.28	-203.84	727.46	581	-209.15	673.69	570.23	-231.96	696.56	394.94	-165.47	820.97	741.54	-322.27	673.38	654.67	-253.26	526.63	1077.2	-53.653	684.85	966.9	245.65	730.54	823.84	-208.15	612.49	1275.4	-69.811	786.47	595.43	138.74	665.13	210.74	-151.82	781.33	29.368	-79.634	653.19	1360.8	-130.85	682.17	209.87	-91.934	733.57	569.16	155.12	804.81	1088.3	-42.031	627.63	74.136	-41.323	773.89	298.33	68.477	728.26	34.621	-56.7	689.44	241.35	99.293	638.02	1355.8	1.9767	705.53	294.38	-98.008	561.7	45.756	-77.911	828.08	692.66	-367.87	697.2	925.61	-327.79	667.85	128.26	-87.251	486.23	851.68	14.525	631.56	931.4	178.73	662.66	902.45	-264.53	758.19	409.05	115.25	686.54	20.888	-142.66	606.61	59.829	-120.27	478.88	856.09	-90.566	726.39	226.85	53.259	713.15	49.31	11.61	744.65	837.71	118.94	686.83	153.98	39.017	557.24	109.56	7.2638	673.47	47.159	90.331	611.07	114.94	63.279	753.56	43.859	55.678	639.36	119.4	-14.938
462	2.31	779.87	1446.8	-97.057	768.29	1437	-1.3749	758.38	1193.5	-55.92	564.67	1159.7	51.511	677.8	1229	117.65	684.05	1095.3	208.45	756.43	853.33	252.99	780.59	755.15	221.91	742.82	753.01	283.65	794.58	701.64	276.56	697.3	1210.7	-249.94	729.79	1044.7	-309.75	777.74	841.39	-348.22	787.52	730.12	-367.15	710.01	649.77	171.54	774.69	492.49	133.13	678.21	487.07	-203.71	731.41	580.48	-208.89	677.65	569.97	-231.68	699.01	394.48	-165.32	829.07	742.76	-321.61	677.98	654.5	-253.02	532.11	1077.2	-53.909	689.73	967.06	245.99	735.85	823.56	-208.07	618.04	1275.4	-69.796	792.79	596.39	138.66	666.36	210.43	-151.69	781.47	29.268	-79.52	658.77	1360.8	-130.71	683.28	209.47	-91.776	740.02	569.63	154.87	810.19	1088.2	-41.077	627.78	74.077	-41.187	784.29	299.08	67.897	728.32	34.654	-56.709	701.92	239.34	99.134	643.5	1355.8	2.1103	707.2	293.83	-97.791	561.78	45.975	-77.818	836.89	694.03	-367.17	703.56	925.66	-327.85	668.41	127.96	-87.097	491.45	851.87	14.392	636.55	931.49	179.01	669.18	902.31	-264.57	765.73	409.43	114.62	686.53	20.916	-142.62	606.8	59.927	-120.19	484.2	856.27	-90.598	739.22	226.12	52.933	732.12	48.541	11.846	749.57	837.99	119.46	702.15	151.95	38.939	574.09	102.98	7.6386	692.67	44.858	90.592	627.81	110.32	63.57	772.8	44.586	55.77	655.82	115.74	-14.697
463	2.315	785.41	1446.7	-96.774	773.78	1436.9	-1.1114	763.88	1193.5	-55.631	570	1159.7	51.363	683.06	1229	117.75	689.09	1095.3	208.62	761.29	853.44	253.58	785.55	755.26	222.65	747.62	753.14	284.28	799.47	701.83	277.39	703.23	1210.8	-249.76	735.37	1044.8	-309.87	784.95	841.95	-347.97	795.85	730.79	-366.59	715.82	649.9	171.71	781.51	493.19	132.4	681.52	486.84	-203.57	735.37	579.95	-208.62	681.63	569.68	-231.39	701.48	394.01	-165.18	837.12	743.94	-320.95	682.6	654.31	-252.78	537.6	1077.3	-54.141	694.63	967.17	246.35	741.19	823.21	-207.92	623.58	1275.4	-69.762	799.02	597.19	138.59	667.6	210.12	-151.56	781.6	29.172	-79.413	664.35	1360.8	-130.55	684.4	209.07	-91.619	746.35	570	154.62	815.56	1088.1	-40.189	627.94	74.024	-41.048	794.51	299.82	67.334	728.37	34.686	-56.72	714.36	237.35	98.993	648.98	1355.8	2.2665	708.88	293.26	-97.577	561.86	46.21	-77.72	845.64	695.36	-366.46	709.89	925.66	-327.9	668.98	127.65	-86.941	496.71	851.98	14.321	641.56	931.51	179.3	675.7	902.14	-264.59	773	409.72	113.97	686.53	20.95	-142.58	606.98	60.03	-120.11	489.52	856.41	-90.57	752	225.42	52.644	751.17	47.958	12.175	754.51	838.21	119.97	717.55	150	38.927	591.24	96.444	8.0615	711.98	42.762	90.938	644.76	105.78	63.912	792.05	45.531	55.971	672.46	112.13	-14.403
464	2.32	790.95	1446.6	-96.472	779.27	1436.8	-0.82937	769.38	1193.4	-55.339	575.34	1159.6	51.236	688.32	1228.8	117.88	694.12	1095.2	208.81	766.17	853.5	254.2	790.53	755.33	223.42	752.42	753.22	284.93	804.36	701.97	278.26	709.16	1210.8	-249.57	740.95	1044.9	-310	792.12	842.46	-347.71	804.15	731.42	-366.01	721.62	649.94	171.92	788.11	493.77	131.66	684.86	486.6	-203.42	739.35	579.41	-208.34	685.64	569.36	-231.09	703.98	393.52	-165.03	845.14	745.09	-320.28	687.23	654.09	-252.51	543.09	1077.2	-54.349	699.53	967.21	246.72	746.56	822.8	-207.69	629.13	1275.3	-69.708	805.14	597.83	138.54	668.85	209.8	-151.43	781.73	29.081	-79.315	669.93	1360.7	-130.36	685.53	208.66	-91.462	752.56	570.27	154.37	820.93	1088	-39.375	628.09	73.979	-40.904	804.56	300.56	66.791	728.43	34.71	-56.728	726.76	235.39	98.873	654.48	1355.7	2.4463	710.6	292.68	-97.368	561.95	46.464	-77.618	854.32	696.65	-365.72	716.2	925.61	-327.93	669.55	127.35	-86.786	502.01	852.02	14.318	646.6	931.46	179.59	682.21	901.93	-264.58	780.02	409.89	113.28	686.53	20.991	-142.54	607.17	60.138	-120.03	494.85	856.51	-90.48	764.72	224.78	52.398	770.27	47.592	12.591	759.48	838.36	120.47	732.98	148.18	38.985	608.67	89.997	8.5384	731.4	40.904	91.365	661.89	101.37	64.307	811.27	46.716	56.276	689.26	108.63	-14.054
465	2.325	796.5	1446.5	-96.152	784.77	1436.7	-0.52914	774.88	1193.2	-55.043	580.69	1159.5	51.132	693.59	1228.6	118.02	699.16	1095.1	209.02	771.05	853.51	254.86	795.55	755.34	224.23	757.24	753.25	285.6	809.28	702.06	279.17	715.08	1210.8	-249.36	746.52	1045	-310.11	799.26	842.93	-347.45	812.4	732.03	-365.42	727.39	649.91	172.16	794.48	494.2	130.9	688.23	486.35	-203.26	743.34	578.86	-208.06	689.67	569.02	-230.78	706.52	393.01	-164.89	853.12	746.2	-319.61	691.85	653.85	-252.24	548.59	1077.2	-54.529	704.44	967.2	247.11	751.95	822.33	-207.4	634.69	1275.2	-69.632	811.15	598.3	138.51	670.12	209.47	-151.3	781.85	28.995	-79.227	675.52	1360.6	-130.15	686.68	208.24	-91.306	758.65	570.44	154.13	826.31	1087.8	-38.645	628.26	73.944	-40.755	814.42	301.31	66.275	728.49	34.718	-56.726	739.1	233.48	98.775	659.97	1355.5	2.6504	712.34	292.09	-97.165	562.03	46.738	-77.51	862.94	697.89	-364.97	722.48	925.53	-327.95	670.12	127.03	-86.632	507.35	851.97	14.387	651.65	931.34	179.9	688.72	901.67	-264.56	786.76	409.95	112.58	686.53	21.039	-142.51	607.36	60.252	-119.94	500.19	856.58	-90.325	777.36	224.2	52.198	789.4	47.472	13.085	764.48	838.44	120.97	748.45	146.49	39.111	626.36	83.682	9.0727	750.88	39.314	91.869	679.18	97.105	64.754	830.44	48.164	56.675	706.2	105.26	-13.652
